<svg viewBox="0 0 620 620" fill="none" xmlns="http://www.w3.org/2000/svg">
  <path d="M155 540c7-59 28-96 64-113" stroke="#111111" stroke-width="8" stroke-linecap="round"/>
  <path d="M222 531c-40-26-58-62-55-110 2-39 18-79 42-118" stroke="#111111" stroke-width="8" stroke-linecap="round"/>
  <path d="M212 420c-34-85-21-166 38-242 50-65 115-91 190-73 18 4 32 12 42 25 48-3 89 18 123 64 29 39 42 86 40 142-2 55 8 100 31 135" stroke="#111111" stroke-width="8" stroke-linecap="round" stroke-linejoin="round"/>
  <path d="M487 129c-29 17-46 39-51 66" stroke="#111111" stroke-width="8" stroke-linecap="round"/>
  <path d="M454 182c-34-50-76-66-124-48-35 13-67 48-96 105-20 39-26 79-18 120" stroke="#111111" stroke-width="8" stroke-linecap="round"/>
  <path d="M266 314c16-15 38-18 61-8" stroke="#111111" stroke-width="7" stroke-linecap="round"/>
  <path d="M391 301c28-10 57-9 86 4" stroke="#111111" stroke-width="7" stroke-linecap="round"/>
  <circle cx="292" cy="341" r="42" stroke="#111111" stroke-width="8"/>
  <circle cx="421" cy="346" r="48" stroke="#111111" stroke-width="8"/>
  <path d="M334 339c12-5 25-5 39 1" stroke="#111111" stroke-width="8" stroke-linecap="round"/>
  <path d="M470 342c27 0 51 7 72 21" stroke="#111111" stroke-width="8" stroke-linecap="round"/>
  <path d="M544 362c-11 13-15 27-12 43" stroke="#111111" stroke-width="8" stroke-linecap="round"/>
  <path d="M314 333c-6 41-13 68-22 82 8 5 17 8 28 8" stroke="#111111" stroke-width="7" stroke-linecap="round" stroke-linejoin="round"/>
  <path d="M329 454c31 14 65 10 101-13" stroke="#111111" stroke-width="8" stroke-linecap="round"/>
  <path d="M258 297c-8 21-13 45-15 74" stroke="#111111" stroke-width="7" stroke-linecap="round"/>
  <path d="M522 404c-17 29-27 64-30 105" stroke="#111111" stroke-width="8" stroke-linecap="round"/>
  <path d="M452 488c-23 38-58 54-104 48-34-4-58-26-73-66" stroke="#111111" stroke-width="8" stroke-linecap="round"/>
  <path d="M258 443c-1 42-14 75-39 99" stroke="#111111" stroke-width="8" stroke-linecap="round"/>
  <path d="M490 516c20-45 32-97 36-154" stroke="#111111" stroke-width="8" stroke-linecap="round"/>
  <path d="M600 541c-6-58-37-101-92-130" stroke="#111111" stroke-width="8" stroke-linecap="round"/>
  <path d="M235 429c-22 34-36 69-42 105" stroke="#111111" stroke-width="8" stroke-linecap="round"/>
  <path d="M546 276c18 36 28 83 28 140" stroke="#111111" stroke-width="8" stroke-linecap="round"/>
  <path d="M552 95l18-34" stroke="#0000CD" stroke-width="8" stroke-linecap="round"/>
  <path d="M575 119l29-22" stroke="#0000CD" stroke-width="8" stroke-linecap="round"/>
  <path d="M592 148l20-3" stroke="#0000CD" stroke-width="8" stroke-linecap="round"/>
</svg>
